<?xml version="1.0" encoding="UTF-8"?>
<!DOCTYPE svg PUBLIC "-//W3C//DTD SVG 1.1//EN" "http://www.w3.org/Graphics/SVG/1.1/DTD/svg11.dtd">
<!-- Creator: CorelDRAW -->
<svg xmlns="http://www.w3.org/2000/svg" xml:space="preserve" width="50px" height="40px" version="1.1" style="shape-rendering:geometricPrecision; text-rendering:geometricPrecision; image-rendering:optimizeQuality; fill-rule:evenodd; clip-rule:evenodd"
viewBox="0 0 4731.64 4731.64"
 xmlns:xlink="http://www.w3.org/1999/xlink"
 xmlns:xodm="http://www.corel.com/coreldraw/odm/2003">
 <defs>
  <style type="text/css">
   <![CDATA[
    .fil0 {fill:white}
   ]]>
  </style>
 </defs>
 <g id="Слой_x0020_1">
  <metadata id="CorelCorpID_0Corel-Layer"/>
  <g id="_1828575354576">
   <path class="fil0" d="M3410.11 425.11c0,127.95 30.52,218.98 108.63,307.24 44.68,50.48 155.8,134.42 242.55,136.35 -23.43,31.98 -43.3,11.36 -151.95,42.13 -228.65,64.74 -435.32,234.87 -541.34,438.26 -32.54,62.43 -92.24,213.36 -92.24,305.15 0,25.76 26.36,33.15 46,46.42 295.08,199.4 499.25,565.96 499.25,933.18l0 628.42c0,176.73 -94.1,378.59 -210.46,491.9 -20.94,20.38 -48.31,22.67 -48.31,53.35l0 776.28c0,72.25 61.31,147.86 129.38,147.86l905.67 0c166.79,0 138.62,-184.56 138.62,-268l0 -1247.6c83.88,-40.25 123.67,-49.82 200.72,-141.21 48.62,-57.66 95,-153.05 95,-256.17l0 -1108.98c0,-297.48 -210.16,-600.45 -483.62,-736.26 -141.05,-70.05 -142.57,-60.95 -274.47,-85.94 -43.45,-8.23 -13.25,13.19 -36.67,-18.78 195.54,-4.36 458.58,-294.55 314.28,-619.25 -16.39,-36.89 -57.6,-99.54 -85.31,-127.25 -80.18,-80.18 -186.56,-119.29 -294.11,-122.2l-26.86 0c-219.26,6.27 -434.76,161.42 -434.76,425.11z"/>
   <path class="fil0" d="M1922.23 1330.77c0,223.19 190.59,434.35 388.14,434.35l0 9.24c-215.13,0 -411.63,105.2 -561.62,242.39l-89.39 104.69c-30.59,40.5 -56.25,80.29 -79.23,124.08 -33.42,63.7 -92.25,220.13 -92.25,314.37 152,101.78 265.47,201.95 367.89,362.18 188.17,294.38 177.35,495.3 177.35,820.73 0,301.12 -258.76,482.6 -258.76,517.52 0,211.09 -43.38,471.31 147.86,471.31l887.18 0c196.83,0 147.86,-280.21 147.86,-462.07 0,-203.31 0,-406.63 0,-609.94 53.9,-28.52 57.19,-19.79 119.02,-65.81 120.53,-89.71 176.71,-226.43 176.71,-396.26 0,-266.31 25.84,-639.07 -61.9,-862.24 -24.71,-62.86 -41.55,-93.75 -73.72,-148.08 -134.23,-226.71 -419.6,-412.86 -686.87,-412.86 1.94,-1.23 5.18,-4.94 6.19,-3.04l141.41 -52.66c499.01,-292.04 103.62,-1015.54 -387.88,-794.51 -87.19,39.21 -130.3,70.61 -184.92,147.78 -47.07,66.49 -83.08,171.3 -83.08,258.85z"/>
   <path class="fil0" d="M804.01 2661.55c-291.62,6.5 -590.54,232.11 -721.05,498.83 -63.61,130 -79.58,237.53 -82.97,356.4l0 207.54c0,171.3 155.24,346.17 295.73,378.9 0,126.3 0.01,252.6 0,378.9 -0.01,65.88 -8.04,132.57 16.37,177.7 21.8,40.3 62.86,71.81 122.26,71.81l905.67 0c46.4,0 93.84,-44.19 110.89,-73.94 25.93,-45.25 18.51,-106.13 18.49,-175.58 -0.03,-126.3 0,-252.6 0,-378.9 146.93,-34.23 295.73,-221.11 295.73,-406.63 0,-249.7 -0.82,-423.13 -145.98,-639.54 -40.65,-60.6 -86.54,-124.9 -144.39,-169.82 -78.18,-60.69 -76.2,-69.52 -184.76,-129.45 -65.27,-36.03 -236.14,-94.17 -328.88,-96.23l12.63 -5.85c5.83,-2.27 14.87,-5.61 20.32,-7.41 87.14,-28.73 142.18,-52.51 209.98,-122.71 192.12,-198.89 146.99,-562.97 -113.25,-696.06 -167.06,-85.44 -401.27,-53.23 -529.7,80.83 -220.21,229.88 -135.38,643.85 202.32,736.35 0.13,0.03 20.53,5.92 21.47,6.26 19.58,7.05 7.36,1.13 19.13,8.59z"/>
  </g>
 </g>
</svg>
