<?xml version="1.0" encoding="UTF-8"?>
<!DOCTYPE svg PUBLIC "-//W3C//DTD SVG 1.1//EN" "http://www.w3.org/Graphics/SVG/1.1/DTD/svg11.dtd">
<!-- Creator: CorelDRAW -->
<svg xmlns="http://www.w3.org/2000/svg" xml:space="preserve" width="50px" height="40px" version="1.1" style="shape-rendering:geometricPrecision; text-rendering:geometricPrecision; image-rendering:optimizeQuality; fill-rule:evenodd; clip-rule:evenodd"
viewBox="0 0 5642.84 5598.76"
 xmlns:xlink="http://www.w3.org/1999/xlink"
 xmlns:xodm="http://www.corel.com/coreldraw/odm/2003">
 <defs>
  <style type="text/css">
   <![CDATA[
    .fil0 {fill:white}
   ]]>
  </style>
 </defs>
 <g id="Слой_x0020_1">
  <metadata id="CorelCorpID_0Corel-Layer"/>
  <g id="_1830528071776">
   <path class="fil0" d="M1300.5 3416.56l-385.74 0c-196.39,0 -188.62,-341.65 11.02,-341.65l363.7 0c230.95,0 232.57,341.65 11.02,341.65zm639.23 -165.32c0,-230.12 300.07,-176.34 529.02,-176.34 231.32,0 217.47,341.65 22.04,341.65l-396.76 0c-52.33,0 -116.28,-51.75 -135.7,-95.74 -3.96,-8.97 -18.59,-63.49 -18.59,-69.57zm-639.23 -540.04l-385.74 0c-196.39,0 -188.62,-341.65 11.02,-341.65l363.7 0c230.95,0 232.57,341.65 11.02,341.65zm639.23 -165.32c0,-230.12 300.07,-176.34 529.02,-176.34 52.66,0 91.71,18.38 119.22,46.1 122.42,123.31 16.96,295.56 -97.18,295.56l-396.76 0c-52.33,0 -116.28,-51.75 -135.7,-95.74 -3.96,-8.97 -18.59,-63.49 -18.59,-69.57zm-639.23 -540.04l-385.74 0c-196.39,0 -188.62,-341.65 11.02,-341.65l363.7 0c230.95,0 232.57,341.65 11.02,341.65zm639.23 -165.32c0,-230.12 300.07,-176.34 529.02,-176.34 231.32,0 217.47,341.65 22.04,341.65l-396.76 0c-42.81,0 -78.64,-27.87 -102.68,-51.62 -18.03,-17.83 -22.38,-20.01 -33.03,-44.12 -3.96,-8.97 -18.59,-63.49 -18.59,-69.57zm-639.23 -540.04l-385.74 0c-133.85,0 -189.63,-192.32 -101.43,-288.79 75.95,-83.09 309.59,-52.86 476.15,-52.86 163.73,0 228.35,190.79 129.11,294.43 -25.45,26.58 -68.73,47.22 -118.09,47.22zm639.23 -165.32c0,-230.12 300.07,-176.34 529.02,-176.34 52.66,0 91.71,18.38 119.22,46.1 122.42,123.31 16.96,295.56 -97.18,295.56l-396.76 0c-52.33,0 -116.28,-51.75 -135.7,-95.74 -3.96,-8.97 -18.59,-63.49 -18.59,-69.57zm-1939.73 -749.44l0 4992.59c0,114.08 106.34,220.42 220.42,220.42l782.51 0 0 -1234.37c0,-227.55 181.18,-407.78 407.78,-407.78l584.12 0c119.81,0 215.82,46.57 278.54,107.2 63.71,61.58 129.24,147.56 129.24,267.52l0 1267.43 1013.95 0 0 -4750.12c0,-348.19 -207.74,-437.52 -483.09,-475.75l-1242.4 -190.36c-146.71,-23.66 -278.96,-38.72 -422.11,-62.82 -190.29,-32.04 -705.14,-119.7 -894.25,-119.7 -189.87,0 -374.72,192.82 -374.72,385.74z"/>
   <path class="fil0" d="M4441.54 4540.72l286.55 0c275.58,0 275.58,352.68 0,352.68l-286.55 0c-271.94,0 -280.97,-352.68 0,-352.68zm0 -705.36l286.55 0c275.58,0 275.58,352.68 0,352.68l-286.55 0c-271.94,0 -280.97,-352.68 0,-352.68zm0 -705.36l286.55 0c275.58,0 275.58,352.68 0,352.68l-286.55 0c-271.94,0 -280.97,-352.68 0,-352.68zm-804.55 -947.82l0 3416.56 1620.11 0c197.24,0 385.74,-188.5 385.74,-385.74l0 -2336.49c0,-172.85 -138.6,-327.71 -312.79,-370.52 -428.87,-105.4 -1110.84,-238.55 -1574.59,-332.1 -44.46,-8.97 -118.47,-43.71 -118.47,8.29z"/>
  </g>
 </g>
</svg>
