<?xml version="1.0" encoding="UTF-8"?>
<!DOCTYPE svg PUBLIC "-//W3C//DTD SVG 1.1//EN" "http://www.w3.org/Graphics/SVG/1.1/DTD/svg11.dtd">
<!-- Creator: CorelDRAW -->
<svg xmlns="http://www.w3.org/2000/svg" xml:space="preserve" width="134.921mm" height="135.45mm" version="1.1" style="shape-rendering:geometricPrecision; text-rendering:geometricPrecision; image-rendering:optimizeQuality; fill-rule:evenodd; clip-rule:evenodd"
viewBox="0 0 4059.08 4075"
 xmlns:xlink="http://www.w3.org/1999/xlink"
 xmlns:xodm="http://www.corel.com/coreldraw/odm/2003">
 <defs>
  <style type="text/css">
   <![CDATA[
    .fil0 {fill:white}
   ]]>
  </style>
 </defs>
 <g id="Слой_x0020_1">
  <metadata id="CorelCorpID_0Corel-Layer"/>
  <g id="_1830783067584">
   <path class="fil0" d="M238.77 3000.54c0,-665.93 809.21,-1149.04 1425.78,-590.09 9.88,8.96 13.44,15.73 21.7,26.05 94.74,118.28 162.04,202.21 199.52,373.53 31.76,145.19 31.36,230.04 1.35,374.41 -31.72,152.56 -118.53,300.66 -223.31,405.45 -68.53,68.53 -149.95,123.81 -244.32,169.55 -206.66,100.16 -477.85,99.29 -684.7,2.61 -193.18,-90.29 -327.01,-225.06 -419.18,-416.51 -44.89,-93.23 -76.83,-239.06 -76.83,-344.99zm955.08 -2618.51c0,-93.8 49.46,-143.26 143.26,-143.26l1687.3 0 0 692.43c0,48.8 54.66,103.47 103.47,103.47l692.43 0 0 2658.3c0,190.64 -197.57,143.26 -405.91,143.26 -551.82,0 -1103.65,0 -1655.47,0 23.05,-34.42 40.68,-38.85 69.81,-65.49 25.12,-22.97 39.17,-45.7 63.49,-71.82 117.45,-126.13 248.73,-395.64 248.73,-579l1257.52 0c137.42,0 137.42,-238.77 0,-238.77l-1257.52 0c0,-121.17 -58.2,-267.38 -108.77,-368.77 -10.03,-20.11 -16.77,-35.7 -26.81,-52.78 -11.63,-19.78 -24.96,-31.27 -31.56,-55.99l1217.72 0c163.07,0 310.4,38.59 310.4,-135.3 0,-40.63 -35.98,-79.19 -65.62,-93.57 -42.17,-20.45 -427.41,-9.9 -491.51,-9.9 -364.52,0 -793.49,6.82 -1154.56,0.51 -59.65,-1.04 -51.78,-14.67 -110.86,-56.28 -94.61,-66.64 -326.87,-175.03 -485.56,-175.03l0 -1552zm2069.33 31.84l384 380.06 -384 1.97 0 -382.03zm-2308.1 -71.63l0 1591.8c-131.18,0 -284.67,66.95 -374.08,111.42 -101.67,50.57 -137.74,81.87 -217.35,148.76 -58.52,49.18 -46.81,35.2 -91.88,91.18 -11.25,13.97 -18.71,19.06 -30.66,33.02 -129.41,151.21 -241.12,420.09 -241.12,626.41 0,203.86 12.99,338.23 103.44,517.37 56.3,111.52 119.9,211.64 208.81,300.56l139.71 114.98c161.97,107.69 353.37,197.28 566.79,197.28l2706.05 0c166.5,0 334.28,-167.77 334.28,-334.28l0 -2841.35c0,-52.52 -63.16,-98.98 -93.52,-129.34l-672.53 -672.53c-30.92,-30.92 -80.23,-97.5 -133.31,-97.5l-1862.4 0c-179.02,0 -342.23,163.22 -342.23,342.24z"/>
   <path class="fil0" d="M1512.21 1552c0,77.27 38.76,135.3 103.47,135.3l1782.81 0c137.42,0 137.42,-238.77 0,-238.77l-1782.81 0c-48.8,0 -103.47,54.66 -103.47,103.47z"/>
   <path class="fil0" d="M907.32 3167.67c-93.74,-62.77 -122.24,-183.06 -254.69,-183.06 -64.71,0 -103.47,58.03 -103.47,135.3 0,61.15 187.09,222.82 236.78,272.6 60.13,60.23 59.38,69.64 137.3,69.64 57.51,0 144.32,-108.51 181.07,-145.25l413.87 -413.86c58.36,-58.15 65.66,-58.1 65.66,-133.32 0,-64.7 -58.03,-103.47 -135.3,-103.47 -59.74,0 -228.41,192.59 -276.58,240.76l-264.63 260.66z"/>
  </g>
 </g>
</svg>
